<?xml version="1.0" encoding="UTF-8" standalone="no"?>
<!-- Generator: Adobe Illustrator 14.0.0, SVG Export Plug-In . SVG Version: 6.00 Build 43363)  -->

<svg
   version="1.1"
   id="svg2"
   x="0px"
   y="0px"
   width="400mm"
   height="400mm"
   viewBox="0 0 400 400"
   enable-background="new 0 0 1400 1900"
   xml:space="preserve"
   sodipodi:docname="board.svg"
   inkscape:version="1.3.2 (091e20ef0f, 2023-11-25)"
   xmlns:inkscape="http://www.inkscape.org/namespaces/inkscape"
   xmlns:sodipodi="http://sodipodi.sourceforge.net/DTD/sodipodi-0.dtd"
   xmlns:xlink="http://www.w3.org/1999/xlink"
   xmlns="http://www.w3.org/2000/svg"
   xmlns:svg="http://www.w3.org/2000/svg"><defs
   id="defs32" /><sodipodi:namedview
   id="namedview32"
   pagecolor="#ffffff"
   bordercolor="#000000"
   borderopacity="0.25"
   inkscape:showpageshadow="2"
   inkscape:pageopacity="0.0"
   inkscape:pagecheckerboard="0"
   inkscape:deskcolor="#d1d1d1"
   inkscape:zoom="0.54115397"
   inkscape:cx="361.26502"
   inkscape:cy="339.09018"
   inkscape:window-width="2256"
   inkscape:window-height="1424"
   inkscape:window-x="0"
   inkscape:window-y="0"
   inkscape:window-maximized="1"
   inkscape:current-layer="layer1"
   inkscape:document-units="mm" />
<g
   id="layer1">
	
	
	
	
	
<rect
   style="fill:#000000;stroke-width:0.264583"
   id="rect32"
   width="49.999901"
   height="50"
   x="0"
   y="0" /><use
   x="0"
   y="0"
   xlink:href="#rect32"
   id="use32" /><use
   x="0"
   y="0"
   xlink:href="#rect32"
   id="use32-3"
   transform="translate(50,50)" /><rect
   style="fill:#000000;stroke-width:0.264583"
   id="rect32-6"
   width="49.999901"
   height="50"
   x="100"
   y="0" /><use
   x="0"
   y="0"
   xlink:href="#rect32-6"
   id="use32-7" /><use
   x="0"
   y="0"
   xlink:href="#rect32-6"
   id="use32-3-5"
   transform="translate(50,50)" /><rect
   style="fill:#000000;stroke-width:0.264583"
   id="rect32-3"
   width="49.999901"
   height="50"
   x="200"
   y="0" /><use
   x="0"
   y="0"
   xlink:href="#rect32-3"
   id="use32-5" /><use
   x="0"
   y="0"
   xlink:href="#rect32-3"
   id="use32-3-6"
   transform="translate(50,50)" /><rect
   style="fill:#000000;stroke-width:0.264583"
   id="rect32-6-2"
   width="49.999901"
   height="50"
   x="300"
   y="0" /><use
   x="0"
   y="0"
   xlink:href="#rect32-6-2"
   id="use32-7-9" /><use
   x="0"
   y="0"
   xlink:href="#rect32-6-2"
   id="use32-3-5-1"
   transform="translate(50,50)" /><rect
   style="fill:#000000;stroke-width:0.264583"
   id="rect32-2"
   width="49.999901"
   height="50"
   x="0"
   y="100" /><use
   x="0"
   y="0"
   xlink:href="#rect32-2"
   id="use32-70" /><use
   x="0"
   y="0"
   xlink:href="#rect32-2"
   id="use32-3-9"
   transform="translate(50,50)" /><rect
   style="fill:#000000;stroke-width:0.264583"
   id="rect32-6-3"
   width="49.999901"
   height="50"
   x="100.00001"
   y="100" /><use
   x="0"
   y="0"
   xlink:href="#rect32-6-3"
   id="use32-7-6" /><use
   x="0"
   y="0"
   xlink:href="#rect32-6-3"
   id="use32-3-5-0"
   transform="translate(50,50)" /><rect
   style="fill:#000000;stroke-width:0.264583"
   id="rect32-3-6"
   width="49.999901"
   height="50"
   x="200"
   y="100" /><use
   x="0"
   y="0"
   xlink:href="#rect32-3-6"
   id="use32-5-2" /><use
   x="0"
   y="0"
   xlink:href="#rect32-3-6"
   id="use32-3-6-6"
   transform="translate(50,50)" /><rect
   style="fill:#000000;stroke-width:0.264583"
   id="rect32-6-2-1"
   width="49.999901"
   height="50"
   x="299.99997"
   y="100" /><use
   x="0"
   y="0"
   xlink:href="#rect32-6-2-1"
   id="use32-7-9-8" /><use
   x="0"
   y="0"
   xlink:href="#rect32-6-2-1"
   id="use32-3-5-1-7"
   transform="translate(50,50)" /><rect
   style="fill:#000000;stroke-width:0.264583"
   id="rect32-61"
   width="49.999901"
   height="50"
   x="0"
   y="200" /><use
   x="0"
   y="0"
   xlink:href="#rect32-61"
   id="use32-2" /><use
   x="0"
   y="0"
   xlink:href="#rect32-61"
   id="use32-3-93"
   transform="translate(50.000008,49.999996)" /><rect
   style="fill:#000000;stroke-width:0.264583"
   id="rect32-6-1"
   width="49.999901"
   height="50"
   x="100"
   y="200" /><use
   x="0"
   y="0"
   xlink:href="#rect32-6-1"
   id="use32-7-94" /><use
   x="0"
   y="0"
   xlink:href="#rect32-6-1"
   id="use32-3-5-7"
   transform="translate(50.000008,49.999996)" /><rect
   style="fill:#000000;stroke-width:0.264583"
   id="rect32-3-8"
   width="49.999901"
   height="50"
   x="200"
   y="200" /><use
   x="0"
   y="0"
   xlink:href="#rect32-3-8"
   id="use32-5-4" /><use
   x="0"
   y="0"
   xlink:href="#rect32-3-8"
   id="use32-3-6-5"
   transform="translate(50.000008,49.999996)" /><rect
   style="fill:#000000;stroke-width:0.264583"
   id="rect32-6-2-0"
   width="49.999901"
   height="50"
   x="300"
   y="200" /><use
   x="0"
   y="0"
   xlink:href="#rect32-6-2-0"
   id="use32-7-9-3" /><use
   x="0"
   y="0"
   xlink:href="#rect32-6-2-0"
   id="use32-3-5-1-6"
   transform="translate(50.000008,49.999996)" /><rect
   style="fill:#000000;stroke-width:0.264583"
   id="rect32-2-1"
   width="49.999901"
   height="50"
   x="0"
   y="299.99997" /><use
   x="0"
   y="0"
   xlink:href="#rect32-2-1"
   id="use32-70-0" /><use
   x="0"
   y="0"
   xlink:href="#rect32-2-1"
   id="use32-3-9-6"
   transform="translate(50.000008,49.999996)" /><rect
   style="fill:#000000;stroke-width:0.264583"
   id="rect32-6-3-3"
   width="49.999901"
   height="50"
   x="100.00001"
   y="299.99997" /><use
   x="0"
   y="0"
   xlink:href="#rect32-6-3-3"
   id="use32-7-6-2" /><use
   x="0"
   y="0"
   xlink:href="#rect32-6-3-3"
   id="use32-3-5-0-0"
   transform="translate(50.000008,49.999996)" /><rect
   style="fill:#000000;stroke-width:0.264583"
   id="rect32-3-6-6"
   width="49.999901"
   height="50"
   x="200"
   y="299.99997" /><use
   x="0"
   y="0"
   xlink:href="#rect32-3-6-6"
   id="use32-5-2-1" /><use
   x="0"
   y="0"
   xlink:href="#rect32-3-6-6"
   id="use32-3-6-6-5"
   transform="translate(50.000008,49.999996)" /><rect
   style="fill:#000000;stroke-width:0.264583"
   id="rect32-6-2-1-5"
   width="49.999901"
   height="50"
   x="299.99997"
   y="299.99997" /><use
   x="0"
   y="0"
   xlink:href="#rect32-6-2-1-5"
   id="use32-7-9-8-4" /><use
   x="0"
   y="0"
   xlink:href="#rect32-6-2-1-5"
   id="use32-3-5-1-7-7"
   transform="translate(50.000008,49.999996)" /></g>
































</svg>
